<svg width="14" height="16" viewBox="0 0 14 16" fill="none" xmlns="http://www.w3.org/2000/svg">
<path d="M6.5641 16C7.46667 16 8.20513 15.2615 8.20513 14.359H4.92308C4.92308 15.2615 5.66154 16 6.5641 16ZM11.4872 11.0769V6.97436C11.4872 4.45538 10.1497 2.34667 7.79487 1.78872V1.23077C7.79487 0.549744 7.24513 0 6.5641 0C5.88308 0 5.33333 0.549744 5.33333 1.23077V1.78872C2.98667 2.34667 1.64103 4.44718 1.64103 6.97436V11.0769L0 12.7179V13.5385H13.1282V12.7179L11.4872 11.0769ZM9.84615 11.8974H3.28205V6.97436C3.28205 4.93949 4.52103 3.28205 6.5641 3.28205C8.60718 3.28205 9.84615 4.93949 9.84615 6.97436V11.8974Z" fill="#12416F"/>
</svg>
